# Blender v2.90.1 OBJ File: 'InDexCube.blend'
# www.blender.org
mtllib InDexCube.mtl
o Cube
v 0.025000 0.025000 -0.025000
v 0.025000 -0.025000 -0.025000
v 0.025000 0.025000 0.025000
v 0.025000 -0.025000 0.025000
v -0.025000 0.025000 -0.025000
v -0.025000 -0.025000 -0.025000
v -0.025000 0.025000 0.025000
v -0.025000 -0.025000 0.025000
vt 0.392385 0.504687
vt 0.605395 0.504687
vt 0.605395 0.717698
vt 0.392385 0.717698
vt 0.392385 0.930708
vt 0.605395 0.930708
vt 0.818406 0.717698
vt 0.818406 0.930708
vt 0.605396 0.291677
vt 0.392385 0.291677
vt 0.392385 0.078666
vt 0.605396 0.078666
vt 0.179375 0.930708
vt 0.179375 0.717698
vn 0.0000 1.0000 0.0000
vn 0.0000 0.0000 1.0000
vn -1.0000 0.0000 0.0000
vn 0.0000 -1.0000 0.0000
vn 1.0000 0.0000 0.0000
vn 0.0000 0.0000 -1.0000
usemtl Material
s off
f 1/1/1 5/2/1 7/3/1 3/4/1
f 4/5/2 3/4/2 7/3/2 8/6/2
f 8/6/3 7/3/3 5/7/3 6/8/3
f 6/9/4 2/10/4 4/11/4 8/12/4
f 2/13/5 1/14/5 3/4/5 4/5/5
f 6/9/6 5/2/6 1/1/6 2/10/6
